<svg xmlns="http://www.w3.org/2000/svg" xmlns:xlink="http://www.w3.org/1999/xlink" width="500" zoomAndPan="magnify" viewBox="0 0 375 374.999991" height="500" preserveAspectRatio="xMidYMid meet" version="1.0"><defs><clipPath id="fadd6ab5e3"><path d="M 144.640625 131.671875 L 249.28125 131.671875 L 249.28125 262.457031 L 144.640625 262.457031 Z M 144.640625 131.671875 " clip-rule="nonzero"/></clipPath><clipPath id="594da97894"><path d="M 125.53125 112.5 L 168 112.5 L 168 155 L 125.53125 155 Z M 125.53125 112.5 " clip-rule="nonzero"/></clipPath></defs><g clip-path="url(#fadd6ab5e3)"><path fill="#f6eec9" d="M 247.90625 262.457031 L 146.316406 262.457031 C 145.457031 262.457031 144.757812 261.753906 144.757812 260.894531 L 144.757812 152.574219 C 144.757812 151.714844 145.457031 151.007812 146.316406 151.007812 C 147.175781 151.007812 147.878906 151.714844 147.878906 152.574219 L 147.878906 259.332031 L 246.347656 259.332031 L 246.347656 134.910156 L 229.851562 134.910156 C 228.992188 134.910156 228.292969 134.203125 228.292969 133.347656 C 228.292969 132.488281 228.992188 131.785156 229.851562 131.785156 L 247.90625 131.785156 C 248.765625 131.785156 249.46875 132.488281 249.46875 133.347656 L 249.46875 260.894531 C 249.46875 261.753906 248.765625 262.457031 247.90625 262.457031 " fill-opacity="1" fill-rule="evenodd"/></g><path fill="#f6eec9" d="M 164.46875 145.640625 C 165.328125 145.640625 166.03125 144.941406 166.03125 144.082031 C 166.03125 143.222656 165.328125 142.519531 164.46875 142.519531 L 162.324219 142.519531 C 161.464844 142.519531 160.761719 143.222656 160.761719 144.082031 C 160.761719 144.941406 161.464844 145.640625 162.324219 145.640625 Z M 238.148438 251.722656 L 156.078125 251.722656 C 155.21875 251.722656 154.515625 251.019531 154.515625 250.160156 L 154.515625 149.9375 C 154.515625 149.078125 155.21875 148.375 156.078125 148.375 C 156.933594 148.375 157.636719 149.078125 157.636719 149.9375 L 157.636719 248.597656 L 236.585938 248.597656 L 236.585938 145.640625 L 229.851562 145.640625 C 228.992188 145.640625 228.292969 144.941406 228.292969 144.082031 C 228.292969 143.222656 228.992188 142.519531 229.851562 142.519531 L 238.148438 142.519531 C 239.007812 142.519531 239.710938 143.222656 239.710938 144.082031 L 239.710938 250.160156 C 239.710938 251.019531 239.007812 251.722656 238.148438 251.722656 " fill-opacity="1" fill-rule="evenodd"/><path fill="#f6eec9" d="M 226.925781 152.667969 L 167.296875 152.667969 C 164.878906 152.667969 162.90625 150.699219 162.90625 148.277344 L 162.90625 139.882812 C 162.90625 139.027344 163.609375 138.324219 164.46875 138.324219 C 165.328125 138.324219 166.03125 139.027344 166.03125 139.882812 L 166.03125 148.277344 C 166.03125 148.980469 166.597656 149.546875 167.296875 149.546875 L 226.925781 149.546875 C 227.65625 149.546875 228.292969 148.949219 228.292969 148.277344 L 228.292969 130.515625 C 228.292969 129.8125 227.628906 129.152344 226.925781 129.152344 L 209.652344 129.152344 C 208.792969 129.152344 208.089844 128.445312 208.089844 127.589844 C 208.089844 121.558594 203.191406 116.65625 197.160156 116.65625 C 190.972656 116.65625 186.132812 121.460938 186.132812 127.589844 C 186.132812 128.445312 185.429688 129.152344 184.570312 129.152344 L 167.296875 129.152344 C 166.957031 129.152344 166.539062 129.375 166.324219 129.667969 C 165.824219 130.371094 164.847656 130.535156 164.148438 130.027344 C 163.445312 129.53125 163.277344 128.554688 163.785156 127.851562 C 164.585938 126.730469 165.933594 126.027344 167.296875 126.027344 L 183.097656 126.027344 C 183.441406 122.847656 184.84375 119.90625 187.140625 117.636719 C 189.800781 114.992188 193.363281 113.535156 197.171875 113.535156 C 200.9375 113.535156 204.472656 114.992188 207.117188 117.644531 C 209.386719 119.917969 210.792969 122.855469 211.136719 126.027344 L 226.925781 126.027344 C 229.355469 126.027344 231.414062 128.085938 231.414062 130.515625 L 231.414062 148.277344 C 231.414062 150.660156 229.355469 152.667969 226.925781 152.667969 " fill-opacity="1" fill-rule="evenodd"/><path fill="#f6eec9" d="M 197.160156 147.203125 L 172.667969 147.203125 C 171.808594 147.203125 171.105469 146.5 171.105469 145.640625 C 171.105469 144.78125 171.808594 144.082031 172.667969 144.082031 L 197.160156 144.082031 C 198.019531 144.082031 198.722656 144.78125 198.722656 145.640625 C 198.722656 146.5 198.019531 147.203125 197.160156 147.203125 " fill-opacity="1" fill-rule="evenodd"/><path fill="#f6eec9" d="M 197.160156 124.855469 C 194.699219 124.855469 192.769531 126.789062 192.769531 129.246094 C 192.769531 131.617188 194.742188 133.542969 197.160156 133.542969 C 199.53125 133.542969 201.453125 131.617188 201.453125 129.246094 C 201.453125 126.828125 199.53125 124.855469 197.160156 124.855469 Z M 197.160156 136.664062 C 193.015625 136.664062 189.648438 133.335938 189.648438 129.246094 C 189.648438 127.226562 190.429688 125.332031 191.832031 123.921875 C 193.246094 122.503906 195.132812 121.734375 197.160156 121.734375 C 201.25 121.734375 204.578125 125.101562 204.578125 129.246094 C 204.578125 133.335938 201.25 136.664062 197.160156 136.664062 " fill-opacity="1" fill-rule="evenodd"/><path fill="#f6eec9" d="M 180.082031 176.96875 L 166.714844 176.96875 C 165.359375 176.96875 164.175781 175.789062 164.175781 174.429688 L 164.175781 160.867188 C 164.175781 159.46875 165.316406 158.328125 166.714844 158.328125 L 173.640625 158.328125 C 174.5 158.328125 175.203125 159.03125 175.203125 159.890625 C 175.203125 160.75 174.5 161.453125 173.640625 161.453125 L 167.296875 161.453125 L 167.296875 173.84375 L 179.496094 173.84375 L 179.496094 169.746094 C 179.496094 168.886719 180.199219 168.1875 181.058594 168.1875 C 181.917969 168.1875 182.621094 168.886719 182.621094 169.746094 L 182.621094 174.429688 C 182.621094 175.789062 181.441406 176.96875 180.082031 176.96875 " fill-opacity="1" fill-rule="evenodd"/><path fill="#f6eec9" d="M 174.035156 171.308594 L 174.023438 171.308594 C 173.601562 171.308594 173.203125 171.132812 172.910156 170.832031 L 169.882812 167.707031 C 169.289062 167.09375 169.300781 166.097656 169.925781 165.5 C 170.539062 164.90625 171.535156 164.917969 172.128906 165.542969 L 174.050781 167.523438 L 183.46875 158.105469 C 184.074219 157.5 185.070312 157.5 185.675781 158.105469 C 186.28125 158.710938 186.28125 159.707031 185.675781 160.3125 L 175.136719 170.847656 C 174.839844 171.140625 174.441406 171.308594 174.035156 171.308594 " fill-opacity="1" fill-rule="evenodd"/><path fill="#f6eec9" d="M 180.082031 199.804688 L 166.714844 199.804688 C 165.335938 199.804688 164.175781 198.59375 164.175781 197.167969 L 164.175781 183.703125 C 164.175781 182.304688 165.316406 181.164062 166.714844 181.164062 L 173.640625 181.164062 C 174.5 181.164062 175.203125 181.867188 175.203125 182.726562 C 175.203125 183.585938 174.5 184.285156 173.640625 184.285156 L 167.296875 184.285156 L 167.296875 196.679688 L 179.496094 196.679688 L 179.496094 192.484375 C 179.496094 191.625 180.199219 190.921875 181.058594 190.921875 C 181.917969 190.921875 182.621094 191.625 182.621094 192.484375 L 182.621094 197.167969 C 182.621094 198.59375 181.457031 199.804688 180.082031 199.804688 " fill-opacity="1" fill-rule="evenodd"/><path fill="#f6eec9" d="M 174.035156 194.046875 C 173.632812 194.046875 173.234375 193.890625 172.929688 193.589844 L 169.90625 190.5625 C 169.300781 189.957031 169.300781 188.960938 169.90625 188.355469 C 170.511719 187.753906 171.503906 187.753906 172.109375 188.355469 L 174.035156 190.28125 L 183.46875 180.84375 C 184.074219 180.238281 185.070312 180.238281 185.675781 180.84375 C 186.28125 181.445312 186.28125 182.441406 185.675781 183.046875 L 175.136719 193.585938 C 174.832031 193.890625 174.433594 194.046875 174.035156 194.046875 " fill-opacity="1" fill-rule="evenodd"/><path fill="#f6eec9" d="M 180.082031 222.738281 L 166.714844 222.738281 C 165.359375 222.738281 164.175781 221.554688 164.175781 220.199219 L 164.175781 206.636719 C 164.175781 205.242188 165.316406 204.097656 166.714844 204.097656 L 173.640625 204.097656 C 174.5 204.097656 175.203125 204.800781 175.203125 205.660156 C 175.203125 206.519531 174.5 207.222656 173.640625 207.222656 L 167.296875 207.222656 L 167.296875 219.617188 L 179.496094 219.617188 L 179.496094 215.417969 C 179.496094 214.558594 180.199219 213.859375 181.058594 213.859375 C 181.917969 213.859375 182.621094 214.558594 182.621094 215.417969 L 182.621094 220.199219 C 182.621094 221.554688 181.441406 222.738281 180.082031 222.738281 " fill-opacity="1" fill-rule="evenodd"/><path fill="#f6eec9" d="M 174.035156 216.980469 C 173.632812 216.980469 173.234375 216.824219 172.929688 216.519531 L 169.90625 213.496094 C 169.300781 212.890625 169.300781 211.894531 169.90625 211.289062 C 170.511719 210.683594 171.503906 210.683594 172.109375 211.289062 L 174.035156 213.210938 L 183.46875 203.777344 C 184.074219 203.171875 185.070312 203.171875 185.675781 203.777344 C 186.28125 204.382812 186.28125 205.378906 185.675781 205.980469 L 175.136719 216.519531 C 174.832031 216.824219 174.433594 216.980469 174.035156 216.980469 " fill-opacity="1" fill-rule="evenodd"/><path fill="#f6eec9" d="M 180.082031 245.378906 L 166.714844 245.378906 C 165.316406 245.378906 164.175781 244.238281 164.175781 242.839844 L 164.175781 229.277344 C 164.175781 227.917969 165.359375 226.738281 166.714844 226.738281 L 173.640625 226.738281 C 174.5 226.738281 175.203125 227.441406 175.203125 228.300781 C 175.203125 229.160156 174.5 229.863281 173.640625 229.863281 L 167.296875 229.863281 L 167.296875 242.253906 L 179.496094 242.253906 L 179.496094 238.15625 C 179.496094 237.296875 180.199219 236.59375 181.058594 236.59375 C 181.917969 236.59375 182.621094 237.296875 182.621094 238.15625 L 182.621094 242.839844 C 182.621094 244.238281 181.480469 245.378906 180.082031 245.378906 " fill-opacity="1" fill-rule="evenodd"/><path fill="#f6eec9" d="M 174.035156 239.71875 L 174.023438 239.71875 C 173.601562 239.71875 173.203125 239.542969 172.910156 239.238281 L 169.882812 236.117188 C 169.289062 235.503906 169.300781 234.507812 169.925781 233.910156 C 170.539062 233.316406 171.535156 233.324219 172.128906 233.949219 L 174.050781 235.929688 L 183.46875 226.511719 C 184.074219 225.910156 185.070312 225.910156 185.675781 226.511719 C 186.28125 227.117188 186.28125 228.113281 185.675781 228.71875 L 175.136719 239.261719 C 174.839844 239.550781 174.441406 239.71875 174.035156 239.71875 " fill-opacity="1" fill-rule="evenodd"/><path fill="#f6eec9" d="M 228.488281 206.832031 L 193.160156 206.832031 C 192.300781 206.832031 191.597656 206.128906 191.597656 205.269531 C 191.597656 204.410156 192.300781 203.707031 193.160156 203.707031 L 228.488281 203.707031 C 229.347656 203.707031 230.046875 204.410156 230.046875 205.269531 C 230.046875 206.128906 229.347656 206.832031 228.488281 206.832031 " fill-opacity="1" fill-rule="evenodd"/><path fill="#f6eec9" d="M 210.824219 214.636719 L 193.160156 214.636719 C 192.300781 214.636719 191.597656 213.933594 191.597656 213.074219 C 191.597656 212.21875 192.300781 211.515625 193.160156 211.515625 L 210.824219 211.515625 C 211.683594 211.515625 212.386719 212.21875 212.386719 213.074219 C 212.386719 213.933594 211.683594 214.636719 210.824219 214.636719 " fill-opacity="1" fill-rule="evenodd"/><path fill="#f6eec9" d="M 228.488281 229.570312 L 193.160156 229.570312 C 192.300781 229.570312 191.597656 228.867188 191.597656 228.007812 C 191.597656 227.148438 192.300781 226.445312 193.160156 226.445312 L 228.488281 226.445312 C 229.347656 226.445312 230.046875 227.148438 230.046875 228.007812 C 230.046875 228.867188 229.347656 229.570312 228.488281 229.570312 " fill-opacity="1" fill-rule="evenodd"/><path fill="#f6eec9" d="M 210.824219 237.277344 L 193.160156 237.277344 C 192.300781 237.277344 191.597656 236.574219 191.597656 235.714844 C 191.597656 234.859375 192.300781 234.15625 193.160156 234.15625 L 210.824219 234.15625 C 211.683594 234.15625 212.386719 234.859375 212.386719 235.714844 C 212.386719 236.574219 211.683594 237.277344 210.824219 237.277344 " fill-opacity="1" fill-rule="evenodd"/><path fill="#f6eec9" d="M 228.488281 187.117188 L 193.160156 187.117188 C 192.300781 187.117188 191.597656 186.414062 191.597656 185.554688 C 191.597656 184.695312 192.300781 183.996094 193.160156 183.996094 L 228.488281 183.996094 C 229.347656 183.996094 230.046875 184.695312 230.046875 185.554688 C 230.046875 186.414062 229.347656 187.117188 228.488281 187.117188 " fill-opacity="1" fill-rule="evenodd"/><path fill="#f6eec9" d="M 210.824219 194.925781 L 193.160156 194.925781 C 192.300781 194.925781 191.597656 194.222656 191.597656 193.363281 C 191.597656 192.503906 192.300781 191.800781 193.160156 191.800781 L 210.824219 191.800781 C 211.683594 191.800781 212.386719 192.503906 212.386719 193.363281 C 212.386719 194.222656 211.683594 194.925781 210.824219 194.925781 " fill-opacity="1" fill-rule="evenodd"/><path fill="#f6eec9" d="M 228.488281 167.40625 L 193.160156 167.40625 C 192.300781 167.40625 191.597656 166.703125 191.597656 165.84375 C 191.597656 164.984375 192.300781 164.28125 193.160156 164.28125 L 228.488281 164.28125 C 229.347656 164.28125 230.046875 164.984375 230.046875 165.84375 C 230.046875 166.703125 229.347656 167.40625 228.488281 167.40625 " fill-opacity="1" fill-rule="evenodd"/><path fill="#f6eec9" d="M 210.824219 175.210938 L 193.160156 175.210938 C 192.300781 175.210938 191.597656 174.507812 191.597656 173.648438 C 191.597656 172.792969 192.300781 172.089844 193.160156 172.089844 L 210.824219 172.089844 C 211.683594 172.089844 212.386719 172.792969 212.386719 173.648438 C 212.386719 174.507812 211.683594 175.210938 210.824219 175.210938 " fill-opacity="1" fill-rule="evenodd"/><g clip-path="url(#594da97894)"><path fill="#f6eec9" d="M 146.316406 115.683594 C 136.578125 115.683594 128.652344 123.605469 128.652344 133.347656 C 128.652344 143.085938 136.578125 151.007812 146.316406 151.007812 C 156.058594 151.007812 163.980469 143.085938 163.980469 133.347656 C 163.980469 123.605469 156.054688 115.683594 146.316406 115.683594 Z M 146.316406 154.132812 C 140.753906 154.132812 135.53125 151.976562 131.613281 148.054688 C 127.6875 144.128906 125.53125 138.910156 125.53125 133.347656 C 125.53125 127.785156 127.6875 122.5625 131.613281 118.640625 C 135.53125 114.71875 140.753906 112.558594 146.316406 112.558594 C 151.878906 112.558594 157.101562 114.71875 161.023438 118.640625 C 164.949219 122.5625 167.101562 127.785156 167.101562 133.347656 C 167.101562 138.910156 164.949219 144.128906 161.023438 148.054688 C 157.101562 151.976562 151.878906 154.132812 146.316406 154.132812 " fill-opacity="1" fill-rule="evenodd"/></g><path fill="#f6eec9" d="M 146.316406 143.105469 C 145.457031 143.105469 144.757812 142.402344 144.757812 141.542969 L 144.757812 125.246094 C 144.757812 124.386719 145.457031 123.683594 146.316406 123.683594 C 147.175781 123.683594 147.878906 124.386719 147.878906 125.246094 L 147.878906 141.542969 C 147.878906 142.402344 147.175781 143.105469 146.316406 143.105469 " fill-opacity="1" fill-rule="evenodd"/><path fill="#f6eec9" d="M 154.515625 134.910156 L 138.21875 134.910156 C 137.359375 134.910156 136.65625 134.203125 136.65625 133.347656 C 136.65625 132.488281 137.359375 131.785156 138.21875 131.785156 L 154.515625 131.785156 C 155.375 131.785156 156.078125 132.488281 156.078125 133.347656 C 156.078125 134.203125 155.375 134.910156 154.515625 134.910156 " fill-opacity="1" fill-rule="evenodd"/></svg>