<svg xmlns="http://www.w3.org/2000/svg" xmlns:xlink="http://www.w3.org/1999/xlink" width="500" zoomAndPan="magnify" viewBox="0 0 375 374.999991" height="500" preserveAspectRatio="xMidYMid meet" version="1.0"><defs><clipPath id="3324a6881d"><path d="M 117 114.84375 L 253 114.84375 L 253 250 L 117 250 Z M 117 114.84375 " clip-rule="nonzero"/></clipPath></defs><g clip-path="url(#3324a6881d)"><path fill="#c93f2b" d="M 132.628906 130.152344 C 142.417969 120.359375 155.433594 114.976562 169.269531 114.976562 C 183.117188 114.976562 196.128906 120.359375 205.921875 130.152344 C 215.714844 139.9375 221.109375 152.960938 221.109375 166.804688 C 221.109375 178.84375 217.019531 190.242188 209.523438 199.453125 L 219.527344 209.460938 L 221.804688 207.179688 L 252.15625 237.523438 L 240.007812 249.671875 L 209.667969 219.328125 L 211.9375 217.050781 L 201.933594 207.046875 C 192.71875 214.550781 181.320312 218.628906 169.285156 218.628906 C 155.4375 218.628906 142.421875 213.238281 132.628906 203.445312 C 112.417969 183.238281 112.417969 150.359375 132.628906 130.152344 Z M 138.226562 197.84375 C 146.523438 206.140625 157.546875 210.703125 169.285156 210.703125 C 181.011719 210.703125 192.035156 206.136719 200.332031 197.84375 C 208.621094 189.554688 213.1875 178.53125 213.1875 166.800781 C 213.1875 155.070312 208.621094 144.039062 200.328125 135.753906 C 192.039062 127.453125 181.019531 122.890625 169.277344 122.890625 C 157.550781 122.890625 146.527344 127.460938 138.230469 135.753906 C 121.113281 152.878906 121.113281 180.734375 138.226562 197.84375 Z M 138.226562 197.84375 " fill-opacity="1" fill-rule="nonzero"/></g><path fill="#c93f2b" d="M 169.277344 128.796875 C 179.433594 128.796875 188.96875 132.757812 196.148438 139.929688 C 197.230469 141.007812 197.230469 142.769531 196.148438 143.851562 C 195.066406 144.933594 193.304688 144.933594 192.226562 143.851562 C 186.09375 137.722656 177.945312 134.351562 169.277344 134.351562 C 160.605469 134.351562 152.460938 137.722656 146.324219 143.851562 C 145.789062 144.394531 145.078125 144.664062 144.359375 144.664062 C 143.65625 144.664062 142.945312 144.394531 142.394531 143.851562 C 141.316406 142.769531 141.316406 141.007812 142.394531 139.929688 C 149.582031 132.757812 159.125 128.796875 169.277344 128.796875 Z M 169.277344 128.796875 " fill-opacity="1" fill-rule="nonzero"/><path fill="#c93f2b" d="M 259.273438 244.648438 C 262.375 247.738281 262.375 252.761719 259.273438 255.847656 L 258.332031 256.796875 C 255.234375 259.886719 250.21875 259.886719 247.125 256.796875 L 242.953125 252.625 L 255.105469 240.476562 Z M 259.273438 244.648438 " fill-opacity="1" fill-rule="nonzero"/></svg>