<svg xmlns="http://www.w3.org/2000/svg" xmlns:xlink="http://www.w3.org/1999/xlink" width="500" zoomAndPan="magnify" viewBox="0 0 375 374.999991" height="500" preserveAspectRatio="xMidYMid meet" version="1.0"><defs><clipPath id="7039a9d7b5"><path d="M 112.5 138.1875 L 262.5 138.1875 L 262.5 237 L 112.5 237 Z M 112.5 138.1875 " clip-rule="nonzero"/></clipPath></defs><g clip-path="url(#7039a9d7b5)"><path fill="#c93f2b" d="M 160.082031 227.628906 C 184.414062 227.628906 190.953125 236.804688 212.8125 236.804688 C 236.40625 236.804688 262.449219 218.796875 262.449219 188.746094 C 262.449219 157.238281 238.738281 138.1875 213 138.1875 C 196.261719 138.1875 192.488281 148.191406 165.222656 148.191406 C 156.300781 148.191406 144.914062 147.277344 142.664062 147.277344 C 138.144531 147.277344 136.003906 149.457031 136.003906 151.640625 C 136.003906 153.832031 138.164062 156.03125 142.238281 156.03125 C 144.964844 156.03125 156.347656 154.601562 162.964844 154.601562 C 174.113281 154.601562 173.679688 157.917969 173.679688 158.078125 C 173.679688 162.882812 163.246094 163.238281 158.316406 163.238281 C 154.480469 163.238281 149.488281 162.183594 146.761719 162.183594 C 142.59375 162.183594 140.695312 164.300781 140.695312 166.484375 C 140.695312 168.820312 142.859375 171.234375 146.734375 171.234375 C 149.300781 171.234375 152.761719 169.769531 159.425781 169.769531 C 162.96875 169.769531 164.769531 171.414062 164.769531 173.613281 C 164.769531 179.027344 147.039062 178.992188 142.234375 178.992188 C 127.957031 178.992188 120.488281 178.085938 119.140625 178.085938 C 114.632812 178.085938 112.550781 180.585938 112.550781 183.078125 C 112.550781 185.554688 114.609375 188.023438 118.398438 188.023438 C 120.050781 188.023438 134.148438 185.089844 149.390625 185.089844 C 152.15625 185.089844 154.832031 185.523438 154.832031 187.503906 C 154.832031 192.601562 145.914062 189.367188 145.914062 195.476562 C 145.914062 200.972656 159.25 198.503906 159.25 203.371094 C 159.25 207.332031 146.761719 204.671875 136.46875 204.671875 C 133.300781 204.671875 130.960938 206.707031 130.960938 208.703125 C 130.960938 211.546875 133.195312 213.335938 135.96875 213.335938 C 143.882812 213.335938 150.539062 212.035156 163.933594 212.035156 C 167.042969 212.035156 169.445312 213.757812 169.445312 216.246094 C 169.445312 220.789062 165.875 220.710938 152.453125 220.710938 C 142.351562 220.710938 139.53125 220.152344 137.195312 220.152344 C 131.644531 220.152344 129.070312 222.390625 129.070312 224.667969 C 129.070312 227.019531 131.820312 229.410156 136.882812 229.410156 C 140.246094 229.410156 147.464844 227.628906 160.082031 227.628906 " fill-opacity="1" fill-rule="nonzero"/></g></svg>