<svg xmlns="http://www.w3.org/2000/svg" xmlns:xlink="http://www.w3.org/1999/xlink" width="500" zoomAndPan="magnify" viewBox="0 0 375 374.999991" height="500" preserveAspectRatio="xMidYMid meet" version="1.0"><defs><clipPath id="7833b5bf78"><path d="M 159 109 L 305.988281 109 L 305.988281 254.59375 L 159 254.59375 Z M 159 109 " clip-rule="nonzero"/></clipPath><clipPath id="19472d25ee"><path d="M 69.007812 105.246094 L 174.757812 105.246094 L 174.757812 257.496094 L 69.007812 257.496094 Z M 69.007812 105.246094 " clip-rule="nonzero"/></clipPath><clipPath id="917a84e232"><path d="M 187.601562 239.363281 L 188 239.363281 L 188 239.617188 L 187.601562 239.617188 Z M 187.601562 239.363281 " clip-rule="nonzero"/></clipPath><clipPath id="55f5e3a289"><path d="M 187.988281 239.53125 C 187.238281 239.753906 187.839844 239.378906 187.839844 239.378906 " clip-rule="nonzero"/></clipPath><clipPath id="1395654924"><path d="M 171.398438 232.585938 L 188.285156 232.585938 L 188.285156 251.257812 L 171.398438 251.257812 Z M 171.398438 232.585938 " clip-rule="nonzero"/></clipPath><clipPath id="f4db57d03c"><path d="M 172.273438 247.199219 C 181.5 238.050781 182.699219 233.699219 184.425781 232.949219 C 185.398438 232.425781 186.898438 232.875 187.5 233.324219 C 187.949219 233.699219 188.25 234.226562 188.25 234.824219 C 188.324219 235.5 187.949219 236.625 187.425781 237.074219 C 186.898438 237.601562 185.773438 237.898438 185.101562 237.675781 C 184.273438 237.449219 183.226562 236.101562 183.074219 235.273438 C 183 234.523438 183.601562 233.476562 184.199219 233.101562 C 184.726562 232.648438 185.925781 232.5 186.601562 232.726562 C 187.273438 232.949219 188.023438 233.773438 188.175781 234.523438 C 188.476562 235.574219 187.875 237.300781 187.125 238.726562 C 186.226562 240.601562 184.273438 242.625 182.699219 244.351562 C 181.050781 246 178.875 247.800781 177.449219 249 C 176.398438 249.824219 175.5 250.726562 174.675781 251.023438 C 174.074219 251.25 173.550781 251.324219 173.101562 251.175781 C 172.425781 250.875 171.523438 249.824219 171.449219 249.148438 C 171.375 248.550781 172.273438 247.199219 172.273438 247.199219 " clip-rule="nonzero"/></clipPath><clipPath id="f391cfe7dc"><path d="M 171.289062 247.375 L 175.511719 247.375 L 175.511719 251.023438 L 171.289062 251.023438 Z M 171.289062 247.375 " clip-rule="nonzero"/></clipPath><clipPath id="26a480e651"><path d="M 175.5 248.699219 C 173.625 251.699219 171.824219 251.175781 171.449219 250.5 C 171.074219 249.898438 171.449219 248.023438 171.976562 247.574219 C 172.574219 247.125 174.976562 247.726562 174.976562 247.726562 " clip-rule="nonzero"/></clipPath><clipPath id="be6ad89b23"><path d="M 170.664062 246.023438 L 177.070312 246.023438 L 177.070312 251.664062 L 170.664062 251.664062 Z M 170.664062 246.023438 " clip-rule="nonzero"/></clipPath><clipPath id="fdcda9131e"><path d="M 171.824219 247.425781 C 175.726562 246 176.550781 246.523438 176.773438 247.125 C 177.074219 247.800781 176.851562 249.300781 176.398438 249.824219 C 176.023438 250.351562 174.976562 250.574219 174.375 250.5 C 173.773438 250.351562 172.949219 249.675781 172.726562 249.148438 C 172.5 248.550781 172.5 247.5 172.875 246.976562 C 173.324219 246.449219 174.75 245.925781 175.5 246.074219 C 176.101562 246.226562 176.773438 246.976562 177 247.574219 C 177.148438 248.175781 177 249.074219 176.550781 249.675781 C 176.101562 250.425781 174.898438 251.175781 174 251.476562 C 173.324219 251.699219 172.425781 251.699219 171.898438 251.476562 C 171.449219 251.25 171 250.726562 170.773438 250.273438 C 170.625 249.824219 170.625 249.148438 170.773438 248.699219 C 170.925781 248.175781 171.824219 247.425781 171.824219 247.425781 " clip-rule="nonzero"/></clipPath><clipPath id="e59bc1feff"><path d="M 175.648438 232.726562 L 188.851562 232.726562 L 188.851562 247.726562 L 175.648438 247.726562 Z M 175.648438 232.726562 " clip-rule="nonzero"/></clipPath><clipPath id="666dfe8301"><path d="M 188.851562 234.675781 C 184.050781 241.648438 180 246.601562 178.199219 247.425781 C 177.449219 247.800781 176.699219 247.800781 176.324219 247.5 C 175.875 247.199219 175.574219 246.148438 175.726562 245.699219 C 175.875 245.25 176.398438 244.800781 176.851562 244.726562 C 177.226562 244.574219 177.976562 244.726562 178.273438 245.101562 C 178.574219 245.476562 178.648438 246.976562 178.351562 247.351562 C 177.976562 247.726562 176.398438 247.648438 176.023438 247.273438 C 175.648438 246.976562 175.648438 246.226562 175.875 245.398438 C 176.699219 243 184.125 234.148438 186.449219 233.023438 C 187.199219 232.648438 188.023438 232.726562 188.398438 233.023438 C 188.773438 233.25 188.851562 234.675781 188.851562 234.675781 " clip-rule="nonzero"/></clipPath><clipPath id="0fb1675bd4"><path d="M 185.605469 233.871094 L 188.476562 233.871094 L 188.476562 236.308594 L 185.605469 236.308594 Z M 185.605469 233.871094 " clip-rule="nonzero"/></clipPath><clipPath id="6abb42027c"><path d="M 188.476562 234.75 C 187.199219 236.773438 186 236.398438 185.699219 235.949219 C 185.476562 235.5 185.699219 234.300781 186.074219 234 C 186.449219 233.699219 188.101562 234.148438 188.101562 234.148438 " clip-rule="nonzero"/></clipPath><clipPath id="f14edd8313"><path d="M 183.726562 230.886719 L 189.320312 230.886719 L 189.320312 239.730469 L 183.726562 239.730469 Z M 183.726562 230.886719 " clip-rule="nonzero"/></clipPath><clipPath id="985b125fea"><path d="M 189.300781 232.351562 C 188.175781 237.148438 187.273438 238.949219 186.375 239.476562 C 185.773438 239.773438 184.875 239.699219 184.425781 239.476562 C 184.050781 239.175781 183.75 238.5 183.75 238.050781 C 183.824219 237.601562 184.199219 237 184.574219 236.773438 C 184.949219 236.550781 185.699219 236.476562 186.074219 236.699219 C 186.523438 236.851562 186.898438 237.449219 186.976562 237.898438 C 187.050781 238.351562 186.898438 239.023438 186.523438 239.324219 C 186.148438 239.625 185.023438 239.851562 184.574219 239.550781 C 184.125 239.25 183.824219 238.5 183.824219 237.75 C 183.898438 236.25 185.625 232.273438 186.675781 231.375 C 187.199219 230.925781 187.875 230.773438 188.324219 231 C 188.773438 231.148438 189.300781 232.351562 189.300781 232.351562 " clip-rule="nonzero"/></clipPath></defs><g clip-path="url(#7833b5bf78)"><path fill="#c93f2b" d="M 163.820312 115.371094 C 163.03125 119.070312 164.816406 124.007812 165.511719 127.523438 C 166.621094 133.195312 167.726562 138.847656 168.855469 144.5 C 170.394531 152.242188 171.597656 159.695312 172.085938 167.324219 C 171.785156 170.179688 171.316406 172.996094 170.753906 175.792969 C 167.632812 181.242188 165.4375 187.214844 164.984375 193.449219 C 164.027344 206.617188 165.378906 219.238281 162.675781 232.367188 C 161.472656 238.191406 155.988281 250.605469 164.683594 253.648438 C 167.351562 254.589844 169.605469 253.722656 171.464844 252.035156 C 173.175781 251.339844 174.621094 249.253906 175.636719 247.996094 C 176.632812 246.753906 177.664062 245.496094 178.679688 244.21875 C 180.425781 243 182.078125 241.609375 183.449219 240.183594 C 189.234375 236.179688 191.601562 231.636719 187.035156 226.675781 C 180.238281 219.578125 186.4375 213.714844 201.554688 212.945312 C 203.867188 212.832031 206.195312 212.945312 208.5625 213.210938 C 218.253906 215.277344 227.925781 217.8125 237.789062 218.507812 C 245.226562 219.03125 258.035156 219.296875 262.9375 212.402344 C 267.519531 205.960938 261.8125 199.179688 255.800781 196.753906 C 247.292969 193.320312 236.398438 194.5 227.8125 198.296875 C 222.421875 199.308594 216.675781 200.324219 210.890625 200.324219 C 194.25 200.285156 184.257812 199.140625 184.765625 190.464844 C 185.234375 179.625 213.238281 184.171875 226.238281 184.171875 C 242.144531 184.132812 237.882812 175.8125 243.460938 172.5625 C 250.277344 168.617188 264.683594 173.652344 277.683594 174.121094 C 282.621094 175.476562 287.617188 176.488281 292.671875 175.90625 C 297.742188 175.304688 304.769531 172.621094 305.367188 166.648438 C 305.988281 160.449219 299.488281 156.355469 294.269531 155.171875 C 289.253906 154.023438 284.070312 154.644531 279.035156 155.960938 C 272.234375 156.824219 265.511719 160.128906 254.5625 160.203125 C 232.773438 160.355469 211.625 162.664062 210.195312 152.316406 C 208.503906 143.09375 232.285156 148.257812 228.828125 136.367188 C 226.894531 130.753906 221.972656 128.367188 215.191406 127.015625 C 211.660156 124.703125 207.886719 122.65625 203.828125 122.242188 C 200.636719 121.925781 197.535156 122.882812 194.363281 122.902344 C 191.226562 122.921875 188.40625 122.132812 185.589844 121.265625 C 184.558594 120.703125 183.5625 120.046875 182.605469 119.257812 C 179.804688 116.949219 178.003906 113.003906 174.789062 111.179688 C 170.375 108.664062 164.949219 110.089844 163.820312 115.371094 Z M 186.117188 231.429688 C 185.628906 233.136719 182.792969 232.949219 183.242188 231.242188 C 183.695312 229.53125 186.605469 229.71875 186.117188 231.429688 Z M 235.363281 171.492188 C 236.640625 172.28125 236.960938 173.820312 236.511719 175.082031 C 236.191406 176.019531 235.460938 177.144531 234.5 178.085938 C 232.867188 179.664062 230.574219 180.675781 228.472656 179.269531 C 225.992188 177.597656 226.21875 173.878906 228.453125 172.167969 C 230.03125 170.984375 233.503906 170.347656 235.363281 171.492188 Z M 296.578125 162.535156 C 297.78125 163.039062 298.210938 164.167969 298.082031 165.144531 C 297.855469 164.957031 297.59375 164.789062 297.234375 164.75 C 297.085938 164.730469 296.898438 164.710938 296.691406 164.675781 C 295.507812 164.015625 295.1875 163.226562 295.734375 162.328125 C 296.089844 162.382812 296.390625 162.457031 296.578125 162.535156 Z M 296.578125 162.535156 " fill-opacity="1" fill-rule="nonzero"/></g><path fill="#c93f2b" d="M 197.554688 234.847656 C 198.792969 232.3125 207.734375 230.359375 213.972656 230.078125 C 220.09375 229.8125 221.445312 232.726562 219.871094 235.222656 C 218.292969 237.738281 213.707031 240.480469 209.277344 239.863281 C 204.167969 239.167969 195.976562 238.023438 197.554688 234.847656 Z M 197.554688 234.847656 " fill-opacity="1" fill-rule="nonzero"/><path fill="#c93f2b" d="M 240.285156 142.003906 C 238.144531 141.742188 236.625 140.105469 236.097656 138.472656 C 235.589844 136.875 237.09375 135.617188 238.933594 135.84375 C 241.054688 136.085938 242.691406 137.722656 243.214844 139.355469 C 243.742188 140.96875 242.144531 142.230469 240.285156 142.003906 Z M 240.285156 142.003906 " fill-opacity="1" fill-rule="nonzero"/><path fill="#c93f2b" d="M 183 110.597656 C 182.714844 109.773438 183.394531 109.171875 184.257812 109.285156 C 185.253906 109.398438 186.058594 110.261719 186.359375 111.066406 C 186.660156 111.894531 185.964844 112.496094 185.082031 112.402344 C 184.070312 112.269531 183.28125 111.425781 183 110.597656 Z M 183 110.597656 " fill-opacity="1" fill-rule="nonzero"/><path fill="#c93f2b" d="M 183.015625 248.558594 C 181.476562 247.734375 183.992188 244.800781 185.234375 246.117188 C 186.097656 247.039062 184.332031 249.253906 183.015625 248.558594 Z M 183.015625 248.558594 " fill-opacity="1" fill-rule="nonzero"/><path fill="#c93f2b" d="M 252.121094 187.234375 C 249.847656 186.914062 248.832031 185.074219 248.945312 183.25 C 249.058594 181.449219 251.292969 180.078125 253.304688 180.359375 C 255.613281 180.675781 256.722656 182.519531 256.570312 184.359375 C 256.441406 186.144531 254.089844 187.515625 252.121094 187.234375 Z M 252.121094 187.234375 " fill-opacity="1" fill-rule="nonzero"/><path fill="#c93f2b" d="M 242.410156 120.96875 C 240.566406 120.742188 238.953125 119.351562 238.164062 117.960938 C 237.414062 116.589844 238.371094 115.539062 239.949219 115.726562 C 241.75 115.953125 243.460938 117.324219 244.269531 118.714844 C 245.058594 120.085938 244.003906 121.171875 242.410156 120.96875 Z M 242.410156 120.96875 " fill-opacity="1" fill-rule="nonzero"/><path fill="#c93f2b" d="M 175.765625 232.40625 C 175.222656 232.144531 174.582031 232.6875 174.566406 233.289062 C 174.546875 234.207031 175.222656 234.941406 176.125 235.089844 C 177.195312 235.261719 178.113281 234.226562 177.738281 233.195312 C 177.457031 232.3125 176.519531 232.066406 175.765625 232.40625 Z M 175.765625 232.40625 " fill-opacity="1" fill-rule="nonzero"/><g clip-path="url(#19472d25ee)"><path fill="#c93f2b" d="M 221.09375 181.289062 C 221.09375 182.53125 221.0625 183.777344 221 185.019531 C 220.941406 186.261719 220.847656 187.503906 220.726562 188.742188 C 220.605469 189.980469 220.453125 191.214844 220.269531 192.445312 C 220.085938 193.675781 219.875 194.902344 219.632812 196.121094 C 219.390625 197.34375 219.117188 198.558594 218.8125 199.765625 C 218.511719 200.972656 218.179688 202.171875 217.820312 203.359375 C 217.457031 204.550781 217.066406 205.734375 216.648438 206.90625 C 216.230469 208.078125 215.78125 209.238281 215.304688 210.386719 C 214.828125 211.535156 214.324219 212.675781 213.792969 213.800781 C 213.261719 214.925781 212.699219 216.035156 212.113281 217.132812 C 211.527344 218.230469 210.914062 219.3125 210.273438 220.378906 C 209.632812 221.449219 208.96875 222.5 208.277344 223.535156 C 207.585938 224.570312 206.871094 225.585938 206.128906 226.585938 C 205.386719 227.585938 204.621094 228.566406 203.832031 229.527344 C 203.042969 230.488281 202.230469 231.433594 201.394531 232.355469 C 200.558594 233.277344 199.699219 234.175781 198.820312 235.058594 C 197.941406 235.9375 197.039062 236.792969 196.117188 237.628906 C 195.195312 238.464844 194.253906 239.277344 193.292969 240.070312 C 192.328125 240.859375 191.347656 241.625 190.347656 242.363281 C 189.351562 243.105469 188.332031 243.824219 187.296875 244.515625 C 186.261719 245.207031 185.210938 245.871094 184.144531 246.511719 C 183.078125 247.148438 181.996094 247.761719 180.898438 248.351562 C 179.800781 248.9375 178.6875 249.496094 177.5625 250.027344 C 176.4375 250.558594 175.300781 251.066406 174.152344 251.539062 C 173 252.015625 171.839844 252.464844 170.667969 252.882812 C 169.496094 253.304688 168.316406 253.695312 167.125 254.054688 C 165.933594 254.417969 164.734375 254.746094 163.527344 255.050781 C 162.320312 255.351562 161.105469 255.625 159.886719 255.867188 C 158.664062 256.109375 157.441406 256.324219 156.207031 256.507812 C 154.976562 256.6875 153.742188 256.839844 152.503906 256.964844 C 151.265625 257.085938 150.023438 257.175781 148.78125 257.238281 C 147.539062 257.296875 146.296875 257.328125 145.050781 257.328125 C 143.808594 257.328125 142.5625 257.296875 141.320312 257.238281 C 140.078125 257.175781 138.835938 257.085938 137.597656 256.964844 C 136.359375 256.839844 135.125 256.6875 133.894531 256.507812 C 132.664062 256.324219 131.4375 256.109375 130.214844 255.867188 C 128.996094 255.625 127.78125 255.351562 126.574219 255.050781 C 125.367188 254.746094 124.167969 254.417969 122.976562 254.054688 C 121.785156 253.695312 120.605469 253.304688 119.433594 252.882812 C 118.261719 252.464844 117.101562 252.015625 115.953125 251.539062 C 114.800781 251.066406 113.664062 250.558594 112.539062 250.027344 C 111.414062 249.496094 110.304688 248.9375 109.207031 248.351562 C 108.109375 247.761719 107.023438 247.148438 105.957031 246.511719 C 104.890625 245.871094 103.839844 245.207031 102.804688 244.515625 C 101.769531 243.824219 100.753906 243.105469 99.753906 242.363281 C 98.753906 241.625 97.773438 240.859375 96.8125 240.070312 C 95.847656 239.277344 94.90625 238.464844 93.984375 237.628906 C 93.0625 236.792969 92.160156 235.9375 91.28125 235.058594 C 90.402344 234.175781 89.542969 233.277344 88.707031 232.355469 C 87.871094 231.433594 87.058594 230.488281 86.269531 229.527344 C 85.480469 228.566406 84.714844 227.585938 83.972656 226.585938 C 83.234375 225.585938 82.515625 224.570312 81.824219 223.535156 C 81.132812 222.5 80.46875 221.449219 79.828125 220.378906 C 79.1875 219.3125 78.574219 218.230469 77.988281 217.132812 C 77.402344 216.035156 76.84375 214.925781 76.308594 213.800781 C 75.777344 212.675781 75.273438 211.535156 74.796875 210.386719 C 74.320312 209.238281 73.875 208.078125 73.453125 206.90625 C 73.035156 205.734375 72.644531 204.550781 72.285156 203.359375 C 71.921875 202.171875 71.589844 200.972656 71.289062 199.765625 C 70.984375 198.558594 70.714844 197.34375 70.46875 196.121094 C 70.226562 194.902344 70.015625 193.675781 69.832031 192.445312 C 69.648438 191.214844 69.496094 189.980469 69.375 188.742188 C 69.253906 187.503906 69.160156 186.261719 69.101562 185.019531 C 69.039062 183.777344 69.007812 182.53125 69.007812 181.289062 C 69.007812 180.042969 69.039062 178.800781 69.101562 177.554688 C 69.160156 176.3125 69.253906 175.074219 69.375 173.832031 C 69.496094 172.59375 69.648438 171.359375 69.832031 170.128906 C 70.015625 168.898438 70.226562 167.671875 70.46875 166.453125 C 70.714844 165.230469 70.984375 164.019531 71.289062 162.8125 C 71.589844 161.601562 71.921875 160.40625 72.285156 159.214844 C 72.644531 158.023438 73.035156 156.839844 73.453125 155.667969 C 73.875 154.496094 74.320312 153.335938 74.796875 152.1875 C 75.273438 151.039062 75.777344 149.898438 76.308594 148.773438 C 76.84375 147.648438 77.402344 146.539062 77.988281 145.441406 C 78.574219 144.34375 79.1875 143.261719 79.828125 142.195312 C 80.46875 141.125 81.132812 140.074219 81.824219 139.039062 C 82.515625 138.007812 83.234375 136.988281 83.972656 135.988281 C 84.714844 134.988281 85.480469 134.007812 86.269531 133.046875 C 87.058594 132.085938 87.871094 131.144531 88.707031 130.222656 C 89.542969 129.296875 90.402344 128.398438 91.28125 127.519531 C 92.160156 126.636719 93.0625 125.78125 93.984375 124.945312 C 94.90625 124.109375 95.847656 123.296875 96.8125 122.507812 C 97.773438 121.714844 98.753906 120.953125 99.753906 120.210938 C 100.753906 119.46875 101.769531 118.753906 102.804688 118.0625 C 103.839844 117.371094 104.890625 116.703125 105.957031 116.0625 C 107.023438 115.425781 108.109375 114.8125 109.207031 114.222656 C 110.304688 113.636719 111.414062 113.078125 112.539062 112.546875 C 113.664062 112.015625 114.800781 111.511719 115.953125 111.035156 C 117.101562 110.558594 118.261719 110.109375 119.433594 109.691406 C 120.605469 109.269531 121.785156 108.882812 122.976562 108.519531 C 124.167969 108.160156 125.367188 107.828125 126.574219 107.523438 C 127.78125 107.222656 128.996094 106.949219 130.214844 106.707031 C 131.4375 106.464844 132.664062 106.25 133.894531 106.070312 C 135.125 105.886719 136.359375 105.734375 137.597656 105.613281 C 138.835938 105.488281 140.078125 105.398438 141.320312 105.335938 C 142.5625 105.277344 143.808594 105.246094 145.050781 105.246094 C 146.296875 105.246094 147.539062 105.277344 148.78125 105.335938 C 150.023438 105.398438 151.265625 105.488281 152.503906 105.613281 C 153.742188 105.734375 154.976562 105.886719 156.207031 106.070312 C 157.441406 106.25 158.664062 106.464844 159.886719 106.707031 C 161.105469 106.949219 162.320312 107.222656 163.527344 107.523438 C 164.734375 107.828125 165.933594 108.160156 167.125 108.519531 C 168.316406 108.882812 169.496094 109.269531 170.667969 109.691406 C 171.839844 110.109375 173 110.558594 174.152344 111.035156 C 175.300781 111.511719 176.4375 112.015625 177.5625 112.546875 C 178.6875 113.078125 179.800781 113.636719 180.898438 114.222656 C 181.996094 114.8125 183.078125 115.425781 184.144531 116.0625 C 185.210938 116.703125 186.261719 117.371094 187.296875 118.0625 C 188.332031 118.753906 189.351562 119.46875 190.347656 120.210938 C 191.347656 120.953125 192.328125 121.714844 193.292969 122.507812 C 194.253906 123.296875 195.195312 124.109375 196.117188 124.945312 C 197.039062 125.78125 197.941406 126.636719 198.820312 127.519531 C 199.699219 128.398438 200.558594 129.296875 201.394531 130.222656 C 202.230469 131.144531 203.042969 132.085938 203.832031 133.046875 C 204.621094 134.007812 205.386719 134.988281 206.128906 135.988281 C 206.871094 136.988281 207.585938 138.007812 208.277344 139.039062 C 208.96875 140.074219 209.632812 141.125 210.273438 142.195312 C 210.914062 143.261719 211.527344 144.34375 212.113281 145.441406 C 212.699219 146.539062 213.261719 147.648438 213.792969 148.773438 C 214.324219 149.898438 214.828125 151.039062 215.304688 152.1875 C 215.78125 153.335938 216.230469 154.496094 216.648438 155.667969 C 217.066406 156.839844 217.457031 158.023438 217.820312 159.214844 C 218.179688 160.40625 218.511719 161.601562 218.8125 162.8125 C 219.117188 164.019531 219.390625 165.230469 219.632812 166.453125 C 219.875 167.671875 220.085938 168.898438 220.269531 170.128906 C 220.453125 171.359375 220.605469 172.59375 220.726562 173.832031 C 220.847656 175.074219 220.941406 176.3125 221 177.554688 C 221.0625 178.800781 221.09375 180.042969 221.09375 181.289062 Z M 221.09375 181.289062 " fill-opacity="1" fill-rule="nonzero"/></g><g clip-path="url(#917a84e232)"><g clip-path="url(#55f5e3a289)"><path fill="#ffffff" d="M 184.3125 236.378906 L 191.070312 236.378906 L 191.070312 242.90625 L 184.3125 242.90625 Z M 184.3125 236.378906 " fill-opacity="1" fill-rule="nonzero"/></g></g><g clip-path="url(#1395654924)"><g clip-path="url(#f4db57d03c)"><path fill="#c93f2b" d="M 168.449219 229.726562 L 191.324219 229.726562 L 191.324219 254.207031 L 168.449219 254.207031 Z M 168.449219 229.726562 " fill-opacity="1" fill-rule="nonzero"/></g></g><g clip-path="url(#f391cfe7dc)"><g clip-path="url(#26a480e651)"><path fill="#f6eec9" d="M 168.449219 244.574219 L 178.582031 244.574219 L 178.582031 254.398438 L 168.449219 254.398438 Z M 168.449219 244.574219 " fill-opacity="1" fill-rule="nonzero"/></g></g><g clip-path="url(#be6ad89b23)"><g clip-path="url(#fdcda9131e)"><path fill="#c93f2b" d="M 167.773438 243 L 180 243 L 180 254.550781 L 167.773438 254.550781 Z M 167.773438 243 " fill-opacity="1" fill-rule="nonzero"/></g></g><g clip-path="url(#e59bc1feff)"><g clip-path="url(#666dfe8301)"><path fill="#c93f2b" d="M 172.726562 230.023438 L 191.925781 230.023438 L 191.925781 250.574219 L 172.726562 250.574219 Z M 172.726562 230.023438 " fill-opacity="1" fill-rule="nonzero"/></g></g><g clip-path="url(#0fb1675bd4)"><g clip-path="url(#6abb42027c)"><path fill="#f6eec9" d="M 182.699219 231 L 191.484375 231 L 191.484375 239.550781 L 182.699219 239.550781 Z M 182.699219 231 " fill-opacity="1" fill-rule="nonzero"/></g></g><g clip-path="url(#f14edd8313)"><g clip-path="url(#985b125fea)"><path fill="#c93f2b" d="M 180.75 228 L 192.300781 228 L 192.300781 242.617188 L 180.75 242.617188 Z M 180.75 228 " fill-opacity="1" fill-rule="nonzero"/></g></g></svg>