<svg xmlns="http://www.w3.org/2000/svg" xmlns:xlink="http://www.w3.org/1999/xlink" width="500" zoomAndPan="magnify" viewBox="0 0 375 374.999991" height="500" preserveAspectRatio="xMidYMid meet" version="1.0"><defs><clipPath id="19317a8351"><path d="M 159 109 L 305.988281 109 L 305.988281 254.59375 L 159 254.59375 Z M 159 109 " clip-rule="nonzero"/></clipPath><clipPath id="71dd559c25"><path d="M 69.007812 105.246094 L 174.757812 105.246094 L 174.757812 257.496094 L 69.007812 257.496094 Z M 69.007812 105.246094 " clip-rule="nonzero"/></clipPath><clipPath id="9c937dc859"><path d="M 187.601562 239.363281 L 188 239.363281 L 188 239.617188 L 187.601562 239.617188 Z M 187.601562 239.363281 " clip-rule="nonzero"/></clipPath><clipPath id="fea1ab2ed1"><path d="M 187.988281 239.53125 C 187.238281 239.753906 187.839844 239.378906 187.839844 239.378906 " clip-rule="nonzero"/></clipPath><clipPath id="ddab7bce11"><path d="M 171.398438 232.585938 L 188.285156 232.585938 L 188.285156 251.257812 L 171.398438 251.257812 Z M 171.398438 232.585938 " clip-rule="nonzero"/></clipPath><clipPath id="09a2ff1c07"><path d="M 172.273438 247.199219 C 181.5 238.050781 182.699219 233.699219 184.425781 232.949219 C 185.398438 232.425781 186.898438 232.875 187.5 233.324219 C 187.949219 233.699219 188.25 234.226562 188.25 234.824219 C 188.324219 235.5 187.949219 236.625 187.425781 237.074219 C 186.898438 237.601562 185.773438 237.898438 185.101562 237.675781 C 184.273438 237.449219 183.226562 236.101562 183.074219 235.273438 C 183 234.523438 183.601562 233.476562 184.199219 233.101562 C 184.726562 232.648438 185.925781 232.5 186.601562 232.726562 C 187.273438 232.949219 188.023438 233.773438 188.175781 234.523438 C 188.476562 235.574219 187.875 237.300781 187.125 238.726562 C 186.226562 240.601562 184.273438 242.625 182.699219 244.351562 C 181.050781 246 178.875 247.800781 177.449219 249 C 176.398438 249.824219 175.5 250.726562 174.675781 251.023438 C 174.074219 251.25 173.550781 251.324219 173.101562 251.175781 C 172.425781 250.875 171.523438 249.824219 171.449219 249.148438 C 171.375 248.550781 172.273438 247.199219 172.273438 247.199219 " clip-rule="nonzero"/></clipPath><clipPath id="9311d990d0"><path d="M 171.289062 247.375 L 175.511719 247.375 L 175.511719 251.023438 L 171.289062 251.023438 Z M 171.289062 247.375 " clip-rule="nonzero"/></clipPath><clipPath id="a788071fc0"><path d="M 175.5 248.699219 C 173.625 251.699219 171.824219 251.175781 171.449219 250.5 C 171.074219 249.898438 171.449219 248.023438 171.976562 247.574219 C 172.574219 247.125 174.976562 247.726562 174.976562 247.726562 " clip-rule="nonzero"/></clipPath><clipPath id="0be9522093"><path d="M 170.664062 246.023438 L 177.070312 246.023438 L 177.070312 251.664062 L 170.664062 251.664062 Z M 170.664062 246.023438 " clip-rule="nonzero"/></clipPath><clipPath id="dd466fa4c6"><path d="M 171.824219 247.425781 C 175.726562 246 176.550781 246.523438 176.773438 247.125 C 177.074219 247.800781 176.851562 249.300781 176.398438 249.824219 C 176.023438 250.351562 174.976562 250.574219 174.375 250.5 C 173.773438 250.351562 172.949219 249.675781 172.726562 249.148438 C 172.5 248.550781 172.5 247.5 172.875 246.976562 C 173.324219 246.449219 174.75 245.925781 175.5 246.074219 C 176.101562 246.226562 176.773438 246.976562 177 247.574219 C 177.148438 248.175781 177 249.074219 176.550781 249.675781 C 176.101562 250.425781 174.898438 251.175781 174 251.476562 C 173.324219 251.699219 172.425781 251.699219 171.898438 251.476562 C 171.449219 251.25 171 250.726562 170.773438 250.273438 C 170.625 249.824219 170.625 249.148438 170.773438 248.699219 C 170.925781 248.175781 171.824219 247.425781 171.824219 247.425781 " clip-rule="nonzero"/></clipPath><clipPath id="4ba213a396"><path d="M 175.648438 232.726562 L 188.851562 232.726562 L 188.851562 247.726562 L 175.648438 247.726562 Z M 175.648438 232.726562 " clip-rule="nonzero"/></clipPath><clipPath id="5e7437a508"><path d="M 188.851562 234.675781 C 184.050781 241.648438 180 246.601562 178.199219 247.425781 C 177.449219 247.800781 176.699219 247.800781 176.324219 247.5 C 175.875 247.199219 175.574219 246.148438 175.726562 245.699219 C 175.875 245.25 176.398438 244.800781 176.851562 244.726562 C 177.226562 244.574219 177.976562 244.726562 178.273438 245.101562 C 178.574219 245.476562 178.648438 246.976562 178.351562 247.351562 C 177.976562 247.726562 176.398438 247.648438 176.023438 247.273438 C 175.648438 246.976562 175.648438 246.226562 175.875 245.398438 C 176.699219 243 184.125 234.148438 186.449219 233.023438 C 187.199219 232.648438 188.023438 232.726562 188.398438 233.023438 C 188.773438 233.25 188.851562 234.675781 188.851562 234.675781 " clip-rule="nonzero"/></clipPath><clipPath id="a47702270c"><path d="M 185.605469 233.871094 L 188.476562 233.871094 L 188.476562 236.308594 L 185.605469 236.308594 Z M 185.605469 233.871094 " clip-rule="nonzero"/></clipPath><clipPath id="a63a487fb5"><path d="M 188.476562 234.75 C 187.199219 236.773438 186 236.398438 185.699219 235.949219 C 185.476562 235.5 185.699219 234.300781 186.074219 234 C 186.449219 233.699219 188.101562 234.148438 188.101562 234.148438 " clip-rule="nonzero"/></clipPath><clipPath id="c89bf1bcf3"><path d="M 183.726562 230.886719 L 189.320312 230.886719 L 189.320312 239.730469 L 183.726562 239.730469 Z M 183.726562 230.886719 " clip-rule="nonzero"/></clipPath><clipPath id="87ef41335b"><path d="M 189.300781 232.351562 C 188.175781 237.148438 187.273438 238.949219 186.375 239.476562 C 185.773438 239.773438 184.875 239.699219 184.425781 239.476562 C 184.050781 239.175781 183.75 238.5 183.75 238.050781 C 183.824219 237.601562 184.199219 237 184.574219 236.773438 C 184.949219 236.550781 185.699219 236.476562 186.074219 236.699219 C 186.523438 236.851562 186.898438 237.449219 186.976562 237.898438 C 187.050781 238.351562 186.898438 239.023438 186.523438 239.324219 C 186.148438 239.625 185.023438 239.851562 184.574219 239.550781 C 184.125 239.25 183.824219 238.5 183.824219 237.75 C 183.898438 236.25 185.625 232.273438 186.675781 231.375 C 187.199219 230.925781 187.875 230.773438 188.324219 231 C 188.773438 231.148438 189.300781 232.351562 189.300781 232.351562 " clip-rule="nonzero"/></clipPath><clipPath id="dab4087397"><path d="M 51.75 102.570312 L 179 102.570312 L 179 204.160156 L 51.75 204.160156 Z M 51.75 102.570312 " clip-rule="nonzero"/></clipPath><clipPath id="79daadae26"><path d="M 51.824219 164.1875 C 52.5 158.335938 52.273438 156.910156 52.5 155.335938 C 52.726562 153.6875 53.023438 152.5625 53.773438 150.011719 C 55.800781 143.484375 59.25 122.859375 67.5 114.984375 C 75.824219 107.109375 92.324219 104.636719 103.726562 103.0625 C 113.476562 101.710938 125.023438 104.335938 131.550781 104.1875 C 135 104.1875 137.175781 103.4375 139.648438 103.585938 C 141.601562 103.734375 144.976562 104.785156 145.050781 104.785156 C 145.050781 104.785156 147.148438 105.761719 147.226562 105.761719 C 147.375 105.761719 153.226562 107.109375 156 108.3125 C 158.699219 109.511719 161.476562 111.085938 163.875 112.886719 C 166.273438 114.6875 168.523438 116.859375 170.398438 119.261719 C 172.273438 121.585938 173.925781 124.210938 175.273438 126.910156 C 176.550781 129.6875 177.523438 132.609375 178.125 135.609375 C 178.726562 138.535156 178.949219 141.6875 178.800781 144.6875 C 178.648438 147.6875 178.125 150.761719 177.300781 153.6875 C 176.476562 156.535156 175.199219 159.460938 173.699219 162.011719 C 172.199219 164.636719 170.324219 167.109375 168.226562 169.285156 C 166.125 171.460938 163.726562 173.410156 161.175781 175.0625 C 158.625 176.636719 155.324219 178.136719 152.925781 178.886719 C 151.125 179.484375 149.324219 179.5625 148.050781 179.859375 C 147.148438 180.160156 146.699219 180.3125 145.875 180.609375 C 144.601562 180.984375 141.375 182.109375 141.300781 182.109375 C 141.226562 182.109375 138.074219 182.335938 136.5 182.410156 C 134.925781 182.5625 131.773438 182.785156 131.699219 182.785156 C 131.699219 182.785156 129.449219 182.035156 129 182.335938 C 128.773438 182.484375 128.925781 182.859375 128.699219 183.160156 C 128.25 183.984375 126.75 185.484375 125.925781 186.6875 C 125.023438 187.886719 124.351562 189.535156 123.523438 190.4375 C 122.925781 191.035156 122.324219 191.335938 121.800781 191.859375 C 121.273438 192.386719 121.050781 192.984375 120.375 193.585938 C 119.476562 194.410156 117.824219 195.085938 116.625 195.984375 C 115.425781 196.8125 114.226562 198.160156 113.175781 198.761719 C 112.425781 199.210938 111.75 199.210938 111.074219 199.585938 C 110.398438 199.886719 109.949219 200.410156 109.199219 200.785156 C 108.074219 201.234375 106.273438 201.386719 104.851562 201.835938 C 103.425781 202.285156 101.851562 203.1875 100.648438 203.410156 C 99.824219 203.5625 99.148438 203.335938 98.476562 203.410156 C 97.726562 203.5625 97.125 203.9375 96.300781 204.011719 C 95.101562 204.085938 93.300781 203.636719 91.875 203.636719 C 90.375 203.5625 88.574219 203.9375 87.375 203.785156 C 86.550781 203.636719 85.949219 203.261719 85.273438 203.109375 C 84.523438 202.960938 83.851562 203.109375 83.023438 202.960938 C 81.824219 202.660156 80.324219 201.6875 78.898438 201.160156 C 77.550781 200.636719 75.75 200.410156 74.699219 199.886719 C 73.875 199.511719 73.5 198.910156 72.824219 198.609375 C 72.226562 198.234375 71.550781 198.160156 70.800781 197.710938 C 69.75 197.035156 68.625 195.6875 67.5 194.710938 C 66.300781 193.8125 64.726562 192.984375 63.898438 192.160156 C 63.226562 191.5625 63.074219 190.886719 62.550781 190.359375 C 62.101562 189.761719 61.425781 189.535156 60.898438 188.859375 C 60.148438 187.886719 59.476562 186.234375 58.726562 184.960938 C 57.898438 183.6875 56.625 182.410156 56.101562 181.359375 C 55.726562 180.609375 55.726562 179.859375 55.425781 179.1875 C 55.125 178.511719 54.601562 178.0625 54.300781 177.234375 C 53.925781 176.109375 53.851562 174.3125 53.476562 172.886719 C 53.101562 171.460938 52.351562 169.8125 52.199219 168.609375 C 52.050781 167.785156 52.273438 167.1875 52.199219 166.4375 C 52.199219 165.6875 51.824219 164.1875 51.824219 164.1875 " clip-rule="nonzero"/></clipPath><clipPath id="34709c7134"><path d="M 48.304688 120.257812 L 184.355469 120.257812 L 184.355469 258.492188 L 48.304688 258.492188 Z M 48.304688 120.257812 " clip-rule="nonzero"/></clipPath><clipPath id="6909da5b24"><path d="M 148.613281 258.226562 C 91.6875 259.425781 76.761719 254.476562 67.6875 245.851562 C 58.613281 237.300781 52.988281 222.675781 50.210938 210.300781 C 47.585938 198.226562 47.738281 184.726562 50.960938 172.648438 C 54.488281 159.824219 64.085938 144.226562 71.585938 135.824219 C 76.835938 129.824219 82.914062 126.148438 88.386719 123.601562 C 92.738281 121.574219 96.863281 120.824219 101.210938 120.523438 C 105.5625 120.148438 110.136719 120.523438 114.335938 121.648438 C 118.539062 122.699219 122.8125 124.574219 126.414062 126.898438 C 130.085938 129.226562 133.539062 132.375 136.238281 135.75 C 138.9375 139.125 141.1875 143.175781 142.6875 147.300781 C 144.113281 151.351562 145.011719 155.925781 145.085938 160.199219 C 145.164062 164.550781 144.488281 169.125 143.210938 173.324219 C 141.9375 177.449219 139.835938 181.574219 137.289062 185.101562 C 134.738281 188.625 131.511719 191.851562 127.914062 194.398438 C 124.386719 196.875 120.261719 198.898438 116.0625 200.175781 C 111.9375 201.449219 107.363281 202.050781 103.011719 201.898438 C 98.664062 201.75 94.164062 200.851562 90.039062 199.351562 C 85.988281 197.851562 82.011719 195.523438 78.636719 192.824219 C 75.261719 190.050781 72.1875 186.601562 69.863281 182.925781 C 67.539062 179.25 65.738281 174.976562 64.6875 170.773438 C 63.710938 166.574219 63.335938 161.925781 63.710938 157.648438 C 64.085938 153.300781 65.210938 148.800781 66.9375 144.824219 C 68.664062 140.851562 71.210938 136.949219 74.136719 133.800781 C 76.988281 130.574219 80.664062 127.648438 84.414062 125.550781 C 88.238281 123.449219 92.585938 121.875 96.863281 121.050781 C 101.136719 120.300781 105.710938 120.148438 109.988281 120.75 C 114.335938 121.351562 118.761719 122.773438 122.585938 124.726562 C 126.488281 126.675781 130.238281 129.375 133.3125 132.449219 C 136.3125 135.523438 139.011719 139.351562 140.960938 143.25 C 142.835938 147.074219 144.1875 151.574219 144.710938 155.851562 C 145.3125 160.125 145.164062 164.773438 144.335938 169.050781 C 143.511719 173.25 141.863281 177.601562 139.6875 181.351562 C 137.511719 185.175781 134.664062 188.773438 131.363281 191.625 C 128.136719 194.476562 120.488281 198.976562 120.261719 198.675781 C 119.960938 198.226562 131.886719 185.324219 138.039062 183.148438 C 142.988281 181.351562 148.988281 182.773438 153.335938 183.523438 C 156.710938 184.050781 159.261719 185.023438 162.039062 186.226562 C 164.738281 187.5 167.4375 189.148438 169.761719 191.023438 C 172.164062 192.824219 174.335938 195.074219 176.210938 197.398438 C 178.085938 199.800781 179.664062 202.5 180.863281 205.199219 C 182.136719 207.976562 183.039062 210.976562 183.5625 213.898438 C 184.085938 216.898438 184.3125 219.976562 184.085938 222.976562 C 183.863281 225.976562 183.335938 229.050781 182.4375 231.898438 C 181.539062 234.824219 180.261719 237.675781 178.6875 240.226562 C 177.113281 242.773438 175.164062 245.25 173.0625 247.351562 C 170.886719 249.449219 168.414062 251.398438 165.863281 252.976562 C 163.3125 254.476562 160.460938 255.75 157.539062 256.648438 C 154.6875 257.550781 148.613281 258.226562 148.613281 258.226562 " clip-rule="nonzero"/></clipPath></defs><g clip-path="url(#19317a8351)"><path fill="#f6eec9" d="M 163.820312 115.371094 C 163.03125 119.070312 164.816406 124.007812 165.511719 127.523438 C 166.621094 133.195312 167.726562 138.847656 168.855469 144.5 C 170.394531 152.242188 171.597656 159.695312 172.085938 167.324219 C 171.785156 170.179688 171.316406 172.996094 170.753906 175.792969 C 167.632812 181.242188 165.4375 187.214844 164.984375 193.449219 C 164.027344 206.617188 165.378906 219.238281 162.675781 232.367188 C 161.472656 238.191406 155.988281 250.605469 164.683594 253.648438 C 167.351562 254.589844 169.605469 253.722656 171.464844 252.035156 C 173.175781 251.339844 174.621094 249.253906 175.636719 247.996094 C 176.632812 246.753906 177.664062 245.496094 178.679688 244.21875 C 180.425781 243 182.078125 241.609375 183.449219 240.183594 C 189.234375 236.179688 191.601562 231.636719 187.035156 226.675781 C 180.238281 219.578125 186.4375 213.714844 201.554688 212.945312 C 203.867188 212.832031 206.195312 212.945312 208.5625 213.210938 C 218.253906 215.277344 227.925781 217.8125 237.789062 218.507812 C 245.226562 219.03125 258.035156 219.296875 262.9375 212.402344 C 267.519531 205.960938 261.8125 199.179688 255.800781 196.753906 C 247.292969 193.320312 236.398438 194.5 227.8125 198.296875 C 222.421875 199.308594 216.675781 200.324219 210.890625 200.324219 C 194.25 200.285156 184.257812 199.140625 184.765625 190.464844 C 185.234375 179.625 213.238281 184.171875 226.238281 184.171875 C 242.144531 184.132812 237.882812 175.8125 243.460938 172.5625 C 250.277344 168.617188 264.683594 173.652344 277.683594 174.121094 C 282.621094 175.476562 287.617188 176.488281 292.671875 175.90625 C 297.742188 175.304688 304.769531 172.621094 305.367188 166.648438 C 305.988281 160.449219 299.488281 156.355469 294.269531 155.171875 C 289.253906 154.023438 284.070312 154.644531 279.035156 155.960938 C 272.234375 156.824219 265.511719 160.128906 254.5625 160.203125 C 232.773438 160.355469 211.625 162.664062 210.195312 152.316406 C 208.503906 143.09375 232.285156 148.257812 228.828125 136.367188 C 226.894531 130.753906 221.972656 128.367188 215.191406 127.015625 C 211.660156 124.703125 207.886719 122.65625 203.828125 122.242188 C 200.636719 121.925781 197.535156 122.882812 194.363281 122.902344 C 191.226562 122.921875 188.40625 122.132812 185.589844 121.265625 C 184.558594 120.703125 183.5625 120.046875 182.605469 119.257812 C 179.804688 116.949219 178.003906 113.003906 174.789062 111.179688 C 170.375 108.664062 164.949219 110.089844 163.820312 115.371094 Z M 186.117188 231.429688 C 185.628906 233.136719 182.792969 232.949219 183.242188 231.242188 C 183.695312 229.53125 186.605469 229.71875 186.117188 231.429688 Z M 235.363281 171.492188 C 236.640625 172.28125 236.960938 173.820312 236.511719 175.082031 C 236.191406 176.019531 235.460938 177.144531 234.5 178.085938 C 232.867188 179.664062 230.574219 180.675781 228.472656 179.269531 C 225.992188 177.597656 226.21875 173.878906 228.453125 172.167969 C 230.03125 170.984375 233.503906 170.347656 235.363281 171.492188 Z M 296.578125 162.535156 C 297.78125 163.039062 298.210938 164.167969 298.082031 165.144531 C 297.855469 164.957031 297.59375 164.789062 297.234375 164.75 C 297.085938 164.730469 296.898438 164.710938 296.691406 164.675781 C 295.507812 164.015625 295.1875 163.226562 295.734375 162.328125 C 296.089844 162.382812 296.390625 162.457031 296.578125 162.535156 Z M 296.578125 162.535156 " fill-opacity="1" fill-rule="nonzero"/></g><path fill="#f6eec9" d="M 197.554688 234.847656 C 198.792969 232.3125 207.734375 230.359375 213.972656 230.078125 C 220.09375 229.8125 221.445312 232.726562 219.871094 235.222656 C 218.292969 237.738281 213.707031 240.480469 209.277344 239.863281 C 204.167969 239.167969 195.976562 238.023438 197.554688 234.847656 Z M 197.554688 234.847656 " fill-opacity="1" fill-rule="nonzero"/><path fill="#f6eec9" d="M 240.285156 142.003906 C 238.144531 141.742188 236.625 140.105469 236.097656 138.472656 C 235.589844 136.875 237.09375 135.617188 238.933594 135.84375 C 241.054688 136.085938 242.691406 137.722656 243.214844 139.355469 C 243.742188 140.96875 242.144531 142.230469 240.285156 142.003906 Z M 240.285156 142.003906 " fill-opacity="1" fill-rule="nonzero"/><path fill="#f6eec9" d="M 183 110.597656 C 182.714844 109.773438 183.394531 109.171875 184.257812 109.285156 C 185.253906 109.398438 186.058594 110.261719 186.359375 111.066406 C 186.660156 111.894531 185.964844 112.496094 185.082031 112.402344 C 184.070312 112.269531 183.28125 111.425781 183 110.597656 Z M 183 110.597656 " fill-opacity="1" fill-rule="nonzero"/><path fill="#f6eec9" d="M 183.015625 248.558594 C 181.476562 247.734375 183.992188 244.800781 185.234375 246.117188 C 186.097656 247.039062 184.332031 249.253906 183.015625 248.558594 Z M 183.015625 248.558594 " fill-opacity="1" fill-rule="nonzero"/><path fill="#f6eec9" d="M 252.121094 187.234375 C 249.847656 186.914062 248.832031 185.074219 248.945312 183.25 C 249.058594 181.449219 251.292969 180.078125 253.304688 180.359375 C 255.613281 180.675781 256.722656 182.519531 256.570312 184.359375 C 256.441406 186.144531 254.089844 187.515625 252.121094 187.234375 Z M 252.121094 187.234375 " fill-opacity="1" fill-rule="nonzero"/><path fill="#f6eec9" d="M 242.410156 120.96875 C 240.566406 120.742188 238.953125 119.351562 238.164062 117.960938 C 237.414062 116.589844 238.371094 115.539062 239.949219 115.726562 C 241.75 115.953125 243.460938 117.324219 244.269531 118.714844 C 245.058594 120.085938 244.003906 121.171875 242.410156 120.96875 Z M 242.410156 120.96875 " fill-opacity="1" fill-rule="nonzero"/><path fill="#f6eec9" d="M 175.765625 232.40625 C 175.222656 232.144531 174.582031 232.6875 174.566406 233.289062 C 174.546875 234.207031 175.222656 234.941406 176.125 235.089844 C 177.195312 235.261719 178.113281 234.226562 177.738281 233.195312 C 177.457031 232.3125 176.519531 232.066406 175.765625 232.40625 Z M 175.765625 232.40625 " fill-opacity="1" fill-rule="nonzero"/><g clip-path="url(#71dd559c25)"><path fill="#f6eec9" d="M 221.09375 181.289062 C 221.09375 182.53125 221.0625 183.777344 221 185.019531 C 220.941406 186.261719 220.847656 187.503906 220.726562 188.742188 C 220.605469 189.980469 220.453125 191.214844 220.269531 192.445312 C 220.085938 193.675781 219.875 194.902344 219.632812 196.121094 C 219.390625 197.34375 219.117188 198.558594 218.8125 199.765625 C 218.511719 200.972656 218.179688 202.171875 217.820312 203.359375 C 217.457031 204.550781 217.066406 205.734375 216.648438 206.90625 C 216.230469 208.078125 215.78125 209.238281 215.304688 210.386719 C 214.828125 211.535156 214.324219 212.675781 213.792969 213.800781 C 213.261719 214.925781 212.699219 216.035156 212.113281 217.132812 C 211.527344 218.230469 210.914062 219.3125 210.273438 220.378906 C 209.632812 221.449219 208.96875 222.5 208.277344 223.535156 C 207.585938 224.570312 206.871094 225.585938 206.128906 226.585938 C 205.386719 227.585938 204.621094 228.566406 203.832031 229.527344 C 203.042969 230.488281 202.230469 231.433594 201.394531 232.355469 C 200.558594 233.277344 199.699219 234.175781 198.820312 235.058594 C 197.941406 235.9375 197.039062 236.792969 196.117188 237.628906 C 195.195312 238.464844 194.253906 239.277344 193.292969 240.070312 C 192.328125 240.859375 191.347656 241.625 190.347656 242.363281 C 189.351562 243.105469 188.332031 243.824219 187.296875 244.515625 C 186.261719 245.207031 185.210938 245.871094 184.144531 246.511719 C 183.078125 247.148438 181.996094 247.761719 180.898438 248.351562 C 179.800781 248.9375 178.6875 249.496094 177.5625 250.027344 C 176.4375 250.558594 175.300781 251.066406 174.152344 251.539062 C 173 252.015625 171.839844 252.464844 170.667969 252.882812 C 169.496094 253.304688 168.316406 253.695312 167.125 254.054688 C 165.933594 254.417969 164.734375 254.746094 163.527344 255.050781 C 162.320312 255.351562 161.105469 255.625 159.886719 255.867188 C 158.664062 256.109375 157.441406 256.324219 156.207031 256.507812 C 154.976562 256.6875 153.742188 256.839844 152.503906 256.964844 C 151.265625 257.085938 150.023438 257.175781 148.78125 257.238281 C 147.539062 257.296875 146.296875 257.328125 145.050781 257.328125 C 143.808594 257.328125 142.5625 257.296875 141.320312 257.238281 C 140.078125 257.175781 138.835938 257.085938 137.597656 256.964844 C 136.359375 256.839844 135.125 256.6875 133.894531 256.507812 C 132.664062 256.324219 131.4375 256.109375 130.214844 255.867188 C 128.996094 255.625 127.78125 255.351562 126.574219 255.050781 C 125.367188 254.746094 124.167969 254.417969 122.976562 254.054688 C 121.785156 253.695312 120.605469 253.304688 119.433594 252.882812 C 118.261719 252.464844 117.101562 252.015625 115.953125 251.539062 C 114.800781 251.066406 113.664062 250.558594 112.539062 250.027344 C 111.414062 249.496094 110.304688 248.9375 109.207031 248.351562 C 108.109375 247.761719 107.023438 247.148438 105.957031 246.511719 C 104.890625 245.871094 103.839844 245.207031 102.804688 244.515625 C 101.769531 243.824219 100.753906 243.105469 99.753906 242.363281 C 98.753906 241.625 97.773438 240.859375 96.8125 240.070312 C 95.847656 239.277344 94.90625 238.464844 93.984375 237.628906 C 93.0625 236.792969 92.160156 235.9375 91.28125 235.058594 C 90.402344 234.175781 89.542969 233.277344 88.707031 232.355469 C 87.871094 231.433594 87.058594 230.488281 86.269531 229.527344 C 85.480469 228.566406 84.714844 227.585938 83.972656 226.585938 C 83.234375 225.585938 82.515625 224.570312 81.824219 223.535156 C 81.132812 222.5 80.46875 221.449219 79.828125 220.378906 C 79.1875 219.3125 78.574219 218.230469 77.988281 217.132812 C 77.402344 216.035156 76.84375 214.925781 76.308594 213.800781 C 75.777344 212.675781 75.273438 211.535156 74.796875 210.386719 C 74.320312 209.238281 73.875 208.078125 73.453125 206.90625 C 73.035156 205.734375 72.644531 204.550781 72.285156 203.359375 C 71.921875 202.171875 71.589844 200.972656 71.289062 199.765625 C 70.984375 198.558594 70.714844 197.34375 70.46875 196.121094 C 70.226562 194.902344 70.015625 193.675781 69.832031 192.445312 C 69.648438 191.214844 69.496094 189.980469 69.375 188.742188 C 69.253906 187.503906 69.160156 186.261719 69.101562 185.019531 C 69.039062 183.777344 69.007812 182.53125 69.007812 181.289062 C 69.007812 180.042969 69.039062 178.800781 69.101562 177.554688 C 69.160156 176.3125 69.253906 175.074219 69.375 173.832031 C 69.496094 172.59375 69.648438 171.359375 69.832031 170.128906 C 70.015625 168.898438 70.226562 167.671875 70.46875 166.453125 C 70.714844 165.230469 70.984375 164.019531 71.289062 162.8125 C 71.589844 161.601562 71.921875 160.40625 72.285156 159.214844 C 72.644531 158.023438 73.035156 156.839844 73.453125 155.667969 C 73.875 154.496094 74.320312 153.335938 74.796875 152.1875 C 75.273438 151.039062 75.777344 149.898438 76.308594 148.773438 C 76.84375 147.648438 77.402344 146.539062 77.988281 145.441406 C 78.574219 144.34375 79.1875 143.261719 79.828125 142.195312 C 80.46875 141.125 81.132812 140.074219 81.824219 139.039062 C 82.515625 138.007812 83.234375 136.988281 83.972656 135.988281 C 84.714844 134.988281 85.480469 134.007812 86.269531 133.046875 C 87.058594 132.085938 87.871094 131.144531 88.707031 130.222656 C 89.542969 129.296875 90.402344 128.398438 91.28125 127.519531 C 92.160156 126.636719 93.0625 125.78125 93.984375 124.945312 C 94.90625 124.109375 95.847656 123.296875 96.8125 122.507812 C 97.773438 121.714844 98.753906 120.953125 99.753906 120.210938 C 100.753906 119.46875 101.769531 118.753906 102.804688 118.0625 C 103.839844 117.371094 104.890625 116.703125 105.957031 116.0625 C 107.023438 115.425781 108.109375 114.8125 109.207031 114.222656 C 110.304688 113.636719 111.414062 113.078125 112.539062 112.546875 C 113.664062 112.015625 114.800781 111.511719 115.953125 111.035156 C 117.101562 110.558594 118.261719 110.109375 119.433594 109.691406 C 120.605469 109.269531 121.785156 108.882812 122.976562 108.519531 C 124.167969 108.160156 125.367188 107.828125 126.574219 107.523438 C 127.78125 107.222656 128.996094 106.949219 130.214844 106.707031 C 131.4375 106.464844 132.664062 106.25 133.894531 106.070312 C 135.125 105.886719 136.359375 105.734375 137.597656 105.613281 C 138.835938 105.488281 140.078125 105.398438 141.320312 105.335938 C 142.5625 105.277344 143.808594 105.246094 145.050781 105.246094 C 146.296875 105.246094 147.539062 105.277344 148.78125 105.335938 C 150.023438 105.398438 151.265625 105.488281 152.503906 105.613281 C 153.742188 105.734375 154.976562 105.886719 156.207031 106.070312 C 157.441406 106.25 158.664062 106.464844 159.886719 106.707031 C 161.105469 106.949219 162.320312 107.222656 163.527344 107.523438 C 164.734375 107.828125 165.933594 108.160156 167.125 108.519531 C 168.316406 108.882812 169.496094 109.269531 170.667969 109.691406 C 171.839844 110.109375 173 110.558594 174.152344 111.035156 C 175.300781 111.511719 176.4375 112.015625 177.5625 112.546875 C 178.6875 113.078125 179.800781 113.636719 180.898438 114.222656 C 181.996094 114.8125 183.078125 115.425781 184.144531 116.0625 C 185.210938 116.703125 186.261719 117.371094 187.296875 118.0625 C 188.332031 118.753906 189.351562 119.46875 190.347656 120.210938 C 191.347656 120.953125 192.328125 121.714844 193.292969 122.507812 C 194.253906 123.296875 195.195312 124.109375 196.117188 124.945312 C 197.039062 125.78125 197.941406 126.636719 198.820312 127.519531 C 199.699219 128.398438 200.558594 129.296875 201.394531 130.222656 C 202.230469 131.144531 203.042969 132.085938 203.832031 133.046875 C 204.621094 134.007812 205.386719 134.988281 206.128906 135.988281 C 206.871094 136.988281 207.585938 138.007812 208.277344 139.039062 C 208.96875 140.074219 209.632812 141.125 210.273438 142.195312 C 210.914062 143.261719 211.527344 144.34375 212.113281 145.441406 C 212.699219 146.539062 213.261719 147.648438 213.792969 148.773438 C 214.324219 149.898438 214.828125 151.039062 215.304688 152.1875 C 215.78125 153.335938 216.230469 154.496094 216.648438 155.667969 C 217.066406 156.839844 217.457031 158.023438 217.820312 159.214844 C 218.179688 160.40625 218.511719 161.601562 218.8125 162.8125 C 219.117188 164.019531 219.390625 165.230469 219.632812 166.453125 C 219.875 167.671875 220.085938 168.898438 220.269531 170.128906 C 220.453125 171.359375 220.605469 172.59375 220.726562 173.832031 C 220.847656 175.074219 220.941406 176.3125 221 177.554688 C 221.0625 178.800781 221.09375 180.042969 221.09375 181.289062 Z M 221.09375 181.289062 " fill-opacity="1" fill-rule="nonzero"/></g><g clip-path="url(#9c937dc859)"><g clip-path="url(#fea1ab2ed1)"><path fill="#ffffff" d="M 184.3125 236.378906 L 191.070312 236.378906 L 191.070312 242.90625 L 184.3125 242.90625 Z M 184.3125 236.378906 " fill-opacity="1" fill-rule="nonzero"/></g></g><g clip-path="url(#ddab7bce11)"><g clip-path="url(#09a2ff1c07)"><path fill="#f6eec9" d="M 168.449219 229.726562 L 191.324219 229.726562 L 191.324219 254.207031 L 168.449219 254.207031 Z M 168.449219 229.726562 " fill-opacity="1" fill-rule="nonzero"/></g></g><g clip-path="url(#9311d990d0)"><g clip-path="url(#a788071fc0)"><path fill="#f6eec9" d="M 168.449219 244.574219 L 178.582031 244.574219 L 178.582031 254.398438 L 168.449219 254.398438 Z M 168.449219 244.574219 " fill-opacity="1" fill-rule="nonzero"/></g></g><g clip-path="url(#0be9522093)"><g clip-path="url(#dd466fa4c6)"><path fill="#f6eec9" d="M 167.773438 243 L 180 243 L 180 254.550781 L 167.773438 254.550781 Z M 167.773438 243 " fill-opacity="1" fill-rule="nonzero"/></g></g><g clip-path="url(#4ba213a396)"><g clip-path="url(#5e7437a508)"><path fill="#f6eec9" d="M 172.726562 230.023438 L 191.925781 230.023438 L 191.925781 250.574219 L 172.726562 250.574219 Z M 172.726562 230.023438 " fill-opacity="1" fill-rule="nonzero"/></g></g><g clip-path="url(#a47702270c)"><g clip-path="url(#a63a487fb5)"><path fill="#f6eec9" d="M 182.699219 231 L 191.484375 231 L 191.484375 239.550781 L 182.699219 239.550781 Z M 182.699219 231 " fill-opacity="1" fill-rule="nonzero"/></g></g><g clip-path="url(#c89bf1bcf3)"><g clip-path="url(#87ef41335b)"><path fill="#f6eec9" d="M 180.75 228 L 192.300781 228 L 192.300781 242.617188 L 180.75 242.617188 Z M 180.75 228 " fill-opacity="1" fill-rule="nonzero"/></g></g><g clip-path="url(#dab4087397)"><g clip-path="url(#79daadae26)"><path fill="#f6eec9" d="M 48.824219 100.0625 L 181.769531 100.0625 L 181.769531 207.085938 L 48.824219 207.085938 Z M 48.824219 100.0625 " fill-opacity="1" fill-rule="nonzero"/></g></g><g clip-path="url(#34709c7134)"><g clip-path="url(#6909da5b24)"><path fill="#f6eec9" d="M 47.210938 117.523438 L 187.085938 117.523438 L 187.085938 264.503906 L 47.210938 264.503906 Z M 47.210938 117.523438 " fill-opacity="1" fill-rule="nonzero"/></g></g></svg>